<?xml version="1.0" encoding="UTF-8" standalone="no"?>
<svg
   height="16"
   viewBox="0 0 16 16"
   width="16"
   version="1.1"
   id="svg1"
   xmlns="http://www.w3.org/2000/svg"
   xmlns:svg="http://www.w3.org/2000/svg">
  <defs
     id="defs1">
    <filter
       style="color-interpolation-filters:sRGB"
       id="filter1"
       x="0"
       y="0"
       width="1"
       height="1">
      <feColorMatrix
         values="10 -0.414013 -0.414013 0 10 -0.414013 10 -0.414013 0 10 -0.414013 -0.414013 10 0 10 0 0 0 1 0 "
         id="feColorMatrix1" />
    </filter>
  </defs>
  <path
     d="M 8,0 C 7.449219,0 7,0.449219 7,1 V 9.585938 L 5.707031,8.292969 C 5.519531,8.105469 5.265625,8 5,8 4.734375,8 4.480469,8.105469 4.292969,8.292969 c -0.390625,0.390625 -0.390625,1.023437 0,1.414062 l 3,3 c 0.390625,0.390625 1.023437,0.390625 1.414062,0 l 3,-3 c 0.390625,-0.390625 0.390625,-1.023437 0,-1.414062 -0.390625,-0.390625 -1.023437,-0.390625 -1.414062,0 L 9,9.585938 V 1 C 9,0.449219 8.550781,0 8,0 Z M 1,14 v 2 h 14 v -2 z m 0,0"
     fill="#2e3436"
     id="path1"
     style="filter:url(#filter1)" />
</svg>
